<?xml version="1.0" encoding="utf-8"?>
<!-- Generator: Adobe Illustrator 21.1.0, SVG Export Plug-In . SVG Version: 6.00 Build 0)  -->
<svg version="1.1" id="Layer_1" xmlns="http://www.w3.org/2000/svg" xmlns:xlink="http://www.w3.org/1999/xlink" x="0px" y="0px"
	 viewBox="0 0 1048.3 262.8" style="enable-background:new 0 0 1048.3 262.8;" xml:space="preserve">
<style type="text/css">
	.st0{fill-rule:evenodd;clip-rule:evenodd;fill:#2A57A1;}
	.st1{fill-rule:evenodd;clip-rule:evenodd;}
</style>
<g>
	<path class="st0" d="M36.9,99.8l-18.7,4.1c-4.7,1-8.4,7.1-6.9,12.9c1.5,5.7,7.3,9.2,13,7.9c3.5-0.8,6.6-3.5,7.4-6.3L36.9,99.8
		L36.9,99.8z M59.2,61.5l18.3-4.3c4.7-1.1,8.5-7,6.9-12.7c-1.5-5.7-7.3-9.2-13-7.9c-3.5,0.8-6.7,3.5-7.4,6.3L59.2,61.5L59.2,61.5z
		 M0,0h174.2v81.8l-11.1,2.6c-0.4,6.2-4.4,9.3-8.5,10c-5.7,0.9-11.6-2.1-13.2-7.9c-1.5-5.7,2.3-11.8,7-12.9l11.8-2.8l4-13.2l-17.3,4
		C136.8,64,129.6,73,129.4,82.9c-0.1,0.2-0.1,0.6-0.1,1.3c0.6,11.7-5.9,17.9-11.8,18.8c-5.7,0.9-11.5-2.2-13-7.9
		c-1.5-5.7,2.2-11.8,6.9-12.9l11.8-2.8l4-13.2l-17.3,4c-10.2,2.4-17.3,11.3-17.6,21.2c-0.1,0.2-0.1,0.6-0.1,1.3
		c0.6,11.7-5.9,17.9-11.8,18.8c-5.7,1-11.5-2.2-13-7.9C66,98,69.7,91.9,74.4,90.8l11.8-2.8l4-13.2l-37.1,8.7l2.5-9.1L79,68.7
		c12.2-3,20.2-14.6,17-26.7C92.8,30,80.6,22.6,68.6,25.4c-7.3,1.7-13.7,7.3-15.3,13.3l-7.1,25.9l-31,7.2l-3.5,12.7l31.5-7.4
		l-2.7,9.1L16.8,92c-9.7,2.3-15,8.6-16.8,15.7V0L0,0z M174.2,88.4v85.9H0v-55.6c2.6,10.9,12.6,20.2,27.4,17.2
		c7.4-1.5,13.8-7.3,15.3-13.3l6.7-25.8l6.7-1.6c-1,3.2-1,7.2,0,11c3.2,12.1,15.5,19.5,27.4,16.7c7.3-1.7,13.4-6.5,16-13.9l-0.3-0.8
		c5.5,5.4,13.4,7.9,21.3,6.1c7.3-1.7,13.4-6.5,16-13.9l-0.3-0.8c5.5,5.4,13.4,7.9,21.3,6.1C165.4,103.7,171.5,98.4,174.2,88.4
		L174.2,88.4z"/>
</g>
<g>
	<path d="M281.4,10.3c2.4,0.6,4.9,1.2,7.1,1.5c0.7,0,1.5,1.2,1.5,2.7c0.1,2.8,0.3,6.2,0.5,9.1c0.1,2.1-0.6,3.8-1.7,3.8
		c-0.5,0-1.4-1.2-1.9-2.7c-1-3.1-2.5-5.7-4.2-7c-4.3-3.6-9.3-5.7-14.7-5.7c-15.8,0-23.2,12.5-23.2,27.5c0,6.6,1.2,12.4,3.4,16.7
		c5.4,10.9,14.5,14.8,22.2,14.8c1.3,0,6.1-0.2,9.6-2.3c3.7-2.1,6.3-5,8.6-9c1.2-2.2,1.9-3.1,2.7-3.1c1.1,0,1.1,2.6,0.8,3.7
		c-0.5,2.5-2.1,6.8-3,8.6c-0.3,0.9-2.1,2.5-3.6,3.2c-1.4,0.5-8.2,2.9-17.3,2.9c-14.7,0-25.1-6.5-29.1-11.2
		c-3.8-4.4-8.3-11.3-8.3-22.3c0-12,6.7-20.4,10.9-23.8c8.4-6.9,18.6-8.9,26.7-8.9C273,8.7,277.8,9.4,281.4,10.3z"/>
	<path d="M327.3,38.1c1.2,1.6,2.2,4.1,2.2,8.5c0,3.9-0.4,15.7-0.4,16.7c0,2.8,2,4,3.7,4c0.5,0,2.5-0.8,3.5-1.2
		c0.3-0.2,0.4-0.1,0.6,0.1c0.2,0.4,0.3,1.1,0.3,1.4c0,1.9-4.7,6.7-10.2,6.7c-2.9,0-5.9-0.9-7.4-4.8c-0.1-0.4-0.7-0.6-0.9-0.4
		c-2.5,1.8-6.5,3.7-7.8,4.2c-1.1,0.4-3.1,0.8-4.4,0.8c-3.7,0-7.6-4.5-7.6-10c0-1.8,0.8-3.7,1.8-5.1c1-1.4,2.7-2,3.6-2.4
		c2.2-0.9,11.2-3.4,13.5-4.1c1.2-0.4,1.8-1.1,1.8-1.5c0.1-0.9,0.3-6.3,0.2-7.6c-0.1-2.4-2.2-6.3-6.6-6.3c-1.4,0-2.5,0.2-3.2,0.7
		c-0.4,0.2-0.6,1.2-0.6,4.6c0,0.4-0.2,0.7-0.4,0.9c-0.7,0.7-8.1,4-8.7,4s-1.3-0.8-1.3-1.4c0-2.9,2.2-5.5,8.3-9.5
		c3.7-2.4,8.5-3.7,9.9-3.7C323.1,32.7,325.8,35.9,327.3,38.1z M318,67c0.5-0.3,0.9-1.5,0.9-1.9c0.2-1.4,0.4-5.5,0.4-8.8
		c0-0.4-0.4-1-0.7-1c-1.7,0-6.2,1.5-8,2.6c-1.2,0.9-1.8,1.4-1.8,4c0,4.4,3.6,6.3,5.4,6.3C315.1,68.2,317.1,67.6,318,67z"/>
	<path d="M342.9,36.9c2.5-0.7,8.3-3.3,10.7-4.5c0.5-0.3,0.7-0.2,0.9-0.1c0.5,0.3,0.9,1.1,0.9,1.3c0,1.4-0.3,3.3-0.3,4.3
		c0,0.2,0.4,0.9,0.7,0.6c3.9-3.1,8.5-5.7,13.4-5.7c3.1,0,5.6,0.8,7.2,2.1c1.7,1.2,2.7,2.7,3.2,3.6c0.1,0.3,0.6,0.4,0.8,0.3
		c1.7-1.3,4-2.9,6.4-4.2c2.3-1.2,5-1.8,6.6-1.8c3.9,0,6.3,1.2,8.5,3.5c2.7,2.6,3.6,6.2,3.8,10c0.2,3.3,0.4,14.1,0.5,20.4
		c0.1,1.7,0.9,3.2,3.5,4c1.3,0.4,2,1,2,1.6c0,0.7-1,1.3-2.8,1.3c-2,0-5.3-0.4-7.9-0.4c-3.4,0-5.8,0.3-8.1,0.3
		c-1.9,0-2.5-0.8-2.5-1.5c0-0.6,0.9-1.1,2-1.5c2.6-0.8,3-1.7,3.2-5.5c0.1-2.6-0.1-14-0.1-17.2c0-1.7-0.3-3.7-1.4-5.5
		c-1.2-1.9-3.3-3.3-6.2-3.3c-3.5,0-5.2,1.4-6.1,2.2c-0.5,0.4-0.8,2.1-0.8,3.1c0,0.7-0.1,19.2,0.1,21.4c0.3,3.2,0.7,4.1,4.2,5.1
		c1.1,0.3,2.1,0.8,2.1,1.5s-1,1.4-2.6,1.4c-2.2,0-6.6-0.3-8.9-0.3c-2.1,0-6,0.2-8.1,0.2c-2.5,0-2.9-0.7-2.9-1.5c0-0.3,0.7-1,2-1.4
		c2.7-0.8,3.6-1.8,3.6-5.3l0.1-16.9c0.1-4.1-0.7-5.6-1.2-6.3c-1.3-1.8-3.5-3.1-6.4-3.1c-2.2,0-4.3,0.8-6,2.2
		c-0.5,0.5-0.9,1.4-0.9,2.2c-0.1,6.4-0.1,15.4-0.1,22.9c0,2.1,0.8,3.4,3.5,4.3c1.9,0.6,2.4,1,2.4,1.8c0,0.6-1.3,1.3-2.7,1.3
		c-0.4,0-5.9-0.2-9.7-0.2c-3.3,0-6.2,0.4-8.3,0.4c-1.4,0-2.8-0.4-2.8-1.3c0-0.6,0.7-1.2,2.5-1.7c3.5-0.8,3.8-2.1,4.2-6.3
		c0.2-2.7,0.5-10.3,0.5-19c0-0.9,0-1.8-0.6-2.3c-2.4-2.4-3.6-3.6-3.6-4.1C341,38.2,342.2,37.1,342.9,36.9z"/>
	<path d="M455.1,38.5c2.7,3.1,4.9,7.6,4.9,13c0,7.2-3.2,13.1-8.5,17.2c-5.5,4.4-11.8,5.1-15.3,5.1c-1.8,0-3.7-0.1-4.9-0.3
		c-0.4-0.1-0.8,0.9-0.8,1.4c-0.1,4.5,0.1,12.5,0.4,14.7c0.3,2.7,0.8,4.2,4.8,5.3c2,0.6,2.7,1.4,2.7,2.1c0,0.9-1.6,1.4-2.8,1.4
		c-2.8,0-9.6-0.5-13.2-0.5c-2.5,0-3.8,0.3-8,0.3c-1.7,0-2.9-0.7-2.9-1.6c0-0.6,1-1.4,2.6-1.8c4.7-1,5.2-2.2,5.4-8
		c0.2-3.5,0.4-11.1,0.4-21.1c0-6.6,0.1-17.7-0.1-21.5c-0.1-2.1-0.4-2.5-0.8-2.8c-1.7-1.4-3.7-3.1-3.7-3.6c0-0.5,1-1.9,2.1-2.3
		c2-0.6,7.4-2.3,10.1-3.9c1-0.6,1.8-0.9,2-0.9c0.4,0,1.2,0.9,1.2,1.4c-0.2,1.8-0.2,3.1-0.3,4.7c0,0.4,0.5,0.8,0.8,0.7
		c1.8-1.2,4.5-2.6,5.8-3.2c1.7-0.7,4-1.4,6.8-1.4C447.9,32.9,452.4,35.4,455.1,38.5z M431.8,40c-0.3,0.3-1,1.5-1.1,2.6
		c-0.6,4.4-0.6,12.4-0.4,17.6c0,1.8,0.4,3.5,1,4.6c2.1,3.7,6,5.6,8.1,5.6c1.1,0,2.2-0.3,3.3-1.2c5.2-3.8,6-12.3,6-15
		c0-2.7-0.5-7.7-4.2-11.8c-2.2-2.4-5.8-3.7-7.5-3.7C435.3,38.8,433.1,39.3,431.8,40z"/>
	<path d="M494.6,38.1c1.2,1.6,2.2,4.1,2.2,8.5c0,3.9-0.4,15.7-0.4,16.7c0,2.8,2,4,3.7,4c0.5,0,2.5-0.8,3.5-1.2
		c0.3-0.2,0.4-0.1,0.6,0.1c0.2,0.4,0.3,1.1,0.3,1.4c0,1.9-4.7,6.7-10.2,6.7c-2.9,0-5.9-0.9-7.4-4.8c-0.1-0.4-0.7-0.6-0.9-0.4
		c-2.5,1.8-6.5,3.7-7.8,4.2c-1.1,0.4-3.1,0.8-4.4,0.8c-3.7,0-7.6-4.5-7.6-10c0-1.8,0.8-3.7,1.8-5.1c1-1.4,2.7-2,3.6-2.4
		c2.2-0.9,11.2-3.4,13.5-4.1c1.2-0.4,1.8-1.1,1.8-1.5c0.1-0.9,0.3-6.3,0.2-7.6c-0.1-2.4-2.2-6.3-6.6-6.3c-1.4,0-2.5,0.2-3.2,0.7
		c-0.4,0.2-0.6,1.2-0.6,4.6c0,0.4-0.2,0.7-0.4,0.9c-0.7,0.7-8.1,4-8.7,4s-1.3-0.8-1.3-1.4c0-2.9,2.2-5.5,8.3-9.5
		c3.7-2.4,8.5-3.7,9.9-3.7C490.4,32.7,493.1,35.9,494.6,38.1z M485.3,67c0.5-0.3,0.9-1.5,0.9-1.9c0.2-1.4,0.4-5.5,0.4-8.8
		c0-0.4-0.4-1-0.7-1c-1.7,0-6.2,1.5-8,2.6c-1.2,0.9-1.8,1.4-1.8,4c0,4.4,3.6,6.3,5.4,6.3C482.4,68.2,484.4,67.6,485.3,67z"/>
	<path d="M510.3,36.2c2-0.6,6.4-2.2,8-3c1.6-0.8,2.9-1.5,3.4-1.5c0.4,0,1.1,1.1,1.1,1.5c0,1.1-0.1,3.5-0.1,4.4
		c0,0.6,0.6,0.5,0.7,0.5c4-3,8.1-5.3,12.6-5.3c4.9,0,7.7,2.4,9.1,4c2.3,2.6,3.6,6.9,3.6,12c0,2.1,0.2,16.6,0.3,18
		c0.2,1.5,0.9,2.7,3.5,3.4c1.9,0.5,2.6,1,2.6,1.8c0,0.8-1.2,1.4-2.9,1.4c-2.4,0-6.2-0.2-9-0.2c-2.5,0-6.4,0.3-7.8,0.3
		c-1.4,0-2.7-0.3-2.7-1.4c0-0.7,1.1-1.3,2.4-1.7c2.3-0.9,2.8-1.8,3-5.1c0.2-3.3,0.2-15.6,0.2-18.4c0-2-0.8-4.7-2.2-5.9
		c-1.1-1-3.6-2.1-5.6-2.1c-3.5,0-5.2,1-6.5,2c-0.4,0.3-0.9,1.6-1,2.2c-0.1,1.7,0.1,23,0.2,24.2c0.1,1.4,0.4,2.1,3.5,3.1
		c0.9,0.4,1.7,1.1,1.7,1.7c0,0.7-1.1,1.4-2.8,1.4c-1.9,0-5.5-0.2-7.6-0.2c-3.7,0-7.5,0.3-9.2,0.3s-2.7-0.6-2.7-1.5
		c0-0.8,1-1.3,2.1-1.6c3.3-1.1,3.8-1.9,4.1-5.5c0.3-3,0.5-10.9,0.5-20.9c0-1.1-0.7-2.1-2.9-4.1c-0.8-0.8-1.1-1.1-1.1-1.4
		C508.5,37.8,509.6,36.5,510.3,36.2z"/>
	<path d="M587.2,38.1c1.2,1.6,2.2,4.1,2.2,8.5c0,3.9-0.4,15.7-0.4,16.7c0,2.8,2,4,3.7,4c0.5,0,2.5-0.8,3.5-1.2
		c0.3-0.2,0.4-0.1,0.6,0.1c0.2,0.4,0.3,1.1,0.3,1.4c0,1.9-4.7,6.7-10.2,6.7c-2.9,0-5.9-0.9-7.4-4.8c-0.1-0.4-0.7-0.6-0.9-0.4
		c-2.5,1.8-6.5,3.7-7.8,4.2c-1.1,0.4-3.1,0.8-4.4,0.8c-3.7,0-7.6-4.5-7.6-10c0-1.8,0.8-3.7,1.8-5.1c1-1.4,2.7-2,3.6-2.4
		c2.2-0.9,11.2-3.4,13.5-4.1c1.2-0.4,1.8-1.1,1.8-1.5c0.1-0.9,0.3-6.3,0.2-7.6c-0.1-2.4-2.2-6.3-6.6-6.3c-1.4,0-2.5,0.2-3.2,0.7
		c-0.4,0.2-0.6,1.2-0.6,4.6c0,0.4-0.2,0.7-0.4,0.9c-0.7,0.7-8.1,4-8.7,4c-0.6,0-1.3-0.8-1.3-1.4c0-2.9,2.2-5.5,8.3-9.5
		c3.7-2.4,8.5-3.7,9.9-3.7C583,32.7,585.7,35.9,587.2,38.1z M577.9,67c0.5-0.3,0.9-1.5,0.9-1.9c0.2-1.4,0.4-5.5,0.4-8.8
		c0-0.4-0.4-1-0.7-1c-1.7,0-6.2,1.5-8,2.6c-1.2,0.9-1.8,1.4-1.8,4c0,4.4,3.6,6.3,5.4,6.3C575,68.2,577,67.6,577.9,67z"/>
	<path d="M669.9,10.3c2.4,0.6,4.9,1.2,7.1,1.5c0.7,0,1.5,1.2,1.5,2.7c0.1,2.8,0.3,6.2,0.5,9.1c0.1,2.1-0.6,3.8-1.7,3.8
		c-0.5,0-1.4-1.2-1.9-2.7c-1-3.1-2.5-5.7-4.2-7c-4.3-3.6-9.3-5.7-14.7-5.7c-15.8,0-23.2,12.5-23.2,27.5c0,6.6,1.2,12.4,3.4,16.7
		c5.4,10.9,14.5,14.8,22.2,14.8c1.3,0,6.1-0.2,9.6-2.3c3.7-2.1,6.3-5,8.6-9c1.2-2.2,1.9-3.1,2.7-3.1c1.1,0,1.1,2.6,0.8,3.7
		c-0.5,2.5-2.1,6.8-3,8.6c-0.3,0.9-2.1,2.5-3.6,3.2c-1.4,0.5-8.2,2.9-17.3,2.9c-14.7,0-25.1-6.5-29.1-11.2
		c-3.8-4.4-8.3-11.3-8.3-22.3c0-12,6.7-20.4,10.9-23.8c8.4-6.9,18.6-8.9,26.7-8.9C661.6,8.7,666.4,9.4,669.9,10.3z"/>
	<path d="M719.2,36.9c2.3,2.2,3.8,5.2,3.8,8.7c0,0.7-1,2.4-2.2,2.4h-21.6c-0.5,0-1,0.3-1.1,0.7c-0.3,0.8-0.4,2.4-0.4,3.6
		c0,2.2,1.2,6.7,3.1,9.2c2.5,3.2,6.6,5,11,5c4.2,0,7-1,8.9-3.5c0.4-0.6,0.9-1.2,1.3-1.2c0.4,0,0.9,0.7,0.9,1.3
		c0,0.6-0.3,1.7-0.8,2.5c-3.1,4.8-7.7,8.6-15.8,8.6c-11.4,0-18.3-8.6-18.3-19.9c0-7.9,4.4-15.8,12.6-19.6c2.5-1.2,5.4-1.9,8.1-1.9
		C712.5,32.7,716.6,34.3,719.2,36.9z M698.7,43.9c-0.1,0.5,0.3,1,0.7,1c2.6,0.1,5.6,0,10.6,0c1.6,0,3.5-1,3.5-3.4c0-2.8-2.8-6-5.5-6
		C703.7,35.5,699.9,39.5,698.7,43.9z"/>
	<path d="M730.5,36.2c2-0.6,6.4-2.2,8-3s2.9-1.5,3.4-1.5c0.4,0,1.1,1.1,1.1,1.5c0,1.1-0.1,3.5-0.1,4.4c0,0.6,0.6,0.5,0.7,0.5
		c4-3,8.1-5.3,12.6-5.3c4.9,0,7.7,2.4,9.1,4c2.3,2.6,3.6,6.9,3.6,12c0,2.1,0.2,16.6,0.3,18c0.2,1.5,0.9,2.7,3.5,3.4
		c1.9,0.5,2.6,1,2.6,1.8c0,0.8-1.2,1.4-2.9,1.4c-2.4,0-6.2-0.2-9-0.2c-2.5,0-6.4,0.3-7.8,0.3c-1.4,0-2.7-0.3-2.7-1.4
		c0-0.7,1.1-1.3,2.4-1.7c2.3-0.9,2.8-1.8,3-5.1c0.2-3.3,0.2-15.6,0.2-18.4c0-2-0.8-4.7-2.2-5.9c-1.1-1-3.6-2.1-5.6-2.1
		c-3.5,0-5.2,1-6.5,2c-0.4,0.3-0.9,1.6-1,2.2c-0.1,1.7,0.1,23,0.2,24.2c0.1,1.4,0.4,2.1,3.5,3.1c0.9,0.4,1.7,1.1,1.7,1.7
		c0,0.7-1.1,1.4-2.8,1.4c-1.9,0-5.5-0.2-7.6-0.2c-3.7,0-7.5,0.3-9.2,0.3c-1.7,0-2.7-0.6-2.7-1.5c0-0.8,1-1.3,2.1-1.6
		c3.3-1.1,3.8-1.9,4.1-5.5c0.3-3,0.5-10.9,0.5-20.9c0-1.1-0.7-2.1-2.9-4.1c-0.8-0.8-1.1-1.1-1.1-1.4
		C728.7,37.8,729.8,36.5,730.5,36.2z"/>
	<path d="M804.3,33.8c0.4,0,1.5,0.4,1.5,1.1c0-0.3,0.3,2.9,0.3,4.1c0,1-1.9,1.2-2.6,1.2h-9.4c-0.6,0-1,0.5-1,0.7
		c0,5-0.1,14.2-0.1,20c0,2.5,0.5,3.7,1.6,4.7c1.1,1,3.3,1.7,4.9,1.7c1,0,3.1-0.7,4.4-1.4c0.8-0.5,1.3-0.7,1.7-0.7
		c0.3,0,0.7,0.5,0.7,1.6c0,0.9-1,2.2-1.6,2.9c-2.7,2.8-6.6,4.7-11.3,4.7c-4,0-7.6-2-9.2-4.3c-1.3-1.7-1.8-3.2-1.8-7
		c0-3.7,0.4-18,0.4-21.5c0-0.7-1.7-1.4-3.8-2.2c-0.8-0.3-1.2-1.1-1.2-1.7c0-0.4,0.1-0.6,0.5-0.9c5-3.3,8.2-5.6,10.4-7.9
		c1.2-1.4,1.9-2.2,2.3-2.2c0.7,0,2,1,2,1.7v5c0,0.3,0.5,0.9,0.9,0.9C795.9,34.1,803.9,33.8,804.3,33.8z"/>
	<path d="M840.9,36.9c2.3,2.2,3.8,5.2,3.8,8.7c0,0.7-1,2.4-2.2,2.4h-21.6c-0.5,0-1,0.3-1.1,0.7c-0.3,0.8-0.4,2.4-0.4,3.6
		c0,2.2,1.2,6.7,3.1,9.2c2.5,3.2,6.6,5,11,5c4.2,0,7-1,8.9-3.5c0.4-0.6,0.9-1.2,1.3-1.2c0.4,0,0.9,0.7,0.9,1.3
		c0,0.6-0.3,1.7-0.8,2.5c-3.1,4.8-7.7,8.6-15.8,8.6c-11.4,0-18.3-8.6-18.3-19.9c0-7.9,4.4-15.8,12.6-19.6c2.5-1.2,5.4-1.9,8.1-1.9
		C834.3,32.7,838.3,34.3,840.9,36.9z M820.4,43.9c-0.1,0.5,0.3,1,0.7,1c2.6,0.1,5.6,0,10.6,0c1.6,0,3.5-1,3.5-3.4c0-2.8-2.8-6-5.5-6
		C825.5,35.5,821.6,39.5,820.4,43.9z"/>
	<path d="M851.2,36.7c3.8-1.2,8.2-2.7,10-3.8c1.1-0.7,2.1-1.2,2.4-1.2c0.6,0,1.2,0.9,1.2,1.2c0,1.8-0.3,3.7-0.3,5.5
		c0,0.3,0.5,0.7,0.8,0.4c3.1-3.3,7.4-6.1,10.5-6.1c4.4,0,5.7,2.7,5.7,4.1c0,0.3-0.3,1.1-0.6,1.6c-1.1,1.7-4.2,5.7-4.9,5.8
		c-0.4,0-1.5-0.1-1.8-0.4c-1.1-1-4.4-2.8-6.2-2.8c-0.9,0-1.9,0.1-2.5,0.6c-0.6,0.5-0.9,1.1-0.9,2c0,2,0.5,19.2,0.6,20.7
		c0.2,3.1,0.9,4.9,2.3,5.2c1,0.2,3.1,0.9,4.3,1.3c1.6,0.5,2,1.2,2,1.6c0,0.8-1.2,1.2-2.8,1.2c-3,0-8.1-0.5-14-0.5
		c-2.1,0-4.2,0.3-6.5,0.3c-1.1,0-2.4-0.3-2.4-1.4c0-0.7,1.5-1.2,2.3-1.5c3.6-1.3,3.8-2.4,3.9-8.3V45.8c0-1.8-0.2-3.3-0.8-3.8
		c-1.6-1.3-3.6-3.1-3.6-3.5C849.9,38.4,850.1,37,851.2,36.7z"/>
	<path d="M927.4,36.4c0.7,0,1.3,2.4,1.3,4.3c0,0.3-0.9,1-1.4,1c-0.7,0-8.1-0.2-9.1-0.2c-0.3,0-0.7,0.7-0.7,1
		c-0.1,1.7,0.1,19.8,0.4,23.1c0.3,2.9,0.7,3.9,5.4,4.8c1.7,0.4,2.3,1.2,2.3,1.6c0,0.7-1.1,1.3-2.8,1.3c-1.1,0-4.9-0.3-7.3-0.3
		c-5.7,0-10.1,0.4-11.9,0.4c-1.1,0-2.3-0.4-2.3-1.3c0-0.4,0.9-1.2,2-1.5c3.7-1.2,3.8-2,3.9-6.3c0.1-3.8,0.2-15.9,0.2-20.9
		c0-1.4-0.4-1.8-0.7-1.8l-4,0.2c-0.4,0-1-0.8-0.9-1.5c0.1-0.4,2.7-2.1,4.8-3.8c0.7-0.6,0.9-0.8,0.9-1.3c0-4,0.9-9.4,3.1-13.5
		c2.1-4.6,4.7-7.8,8.9-10.6c3.7-2.6,7.4-3.5,10.6-3.6c2.4-0.1,4.8,0.7,6.4,1.7c1,0.7,2.3,2.5,2.3,3.9c0,2-1.8,4.4-3.3,4.9
		c-0.5,0.2-1.5,0.4-2,0.4c-0.7,0-1.5-0.4-2.8-1.9c-1.9-1.9-4.3-4.3-6.7-4.3c-1.7,0-2.7,0.7-3.6,2.1c-1.7,2.4-3,7-3,21.4
		c0,0.3,0.6,0.7,0.7,0.7C923.6,36.5,927.1,36.4,927.4,36.4z"/>
	<path d="M971.3,54.6c0,7.9-4.8,13.6-8.3,15.8c-3.8,2.7-8.6,3.8-12.8,3.8c-4.2,0-9.4-2-12.8-4.8c-4-3.3-7-9.1-7-14.3
		c0-6.5,2.9-11.4,6.4-14.4c2.8-2.4,8-5.4,14.9-5.4C961,35.2,971.3,42.5,971.3,54.6z M945.4,40.3c-2.1,2-3.8,6-3.8,12.2
		c0,3.1,0.4,6.6,1.1,8.9c2,6.5,6.2,9.7,10.1,9.7c0.9,0,2.7-0.7,4.1-2.3c2-2.5,3.4-7.4,3.4-12.7c0-3.9-0.8-9.9-3.7-14
		c-1.7-2.1-4.1-3.7-6.7-3.7C948.3,38.3,946.9,38.9,945.4,40.3z"/>
	<path d="M978.3,38.9c3.5-1.1,7.7-2.5,9.4-3.5c1-0.7,2-1.1,2.2-1.1c0.6,0,1.1,0.8,1.1,1.1c0,1.7-0.3,3.4-0.3,5.2
		c0,0.3,0.5,0.7,0.7,0.4c2.9-3.1,7-5.8,9.9-5.8c4.1,0,5.4,2.5,5.4,3.8c0,0.3-0.3,1-0.6,1.5c-1,1.6-3.9,5.4-4.6,5.5
		c-0.4,0-1.4-0.1-1.7-0.4c-1-0.9-4.1-2.6-5.9-2.6c-0.8,0-1.8,0.1-2.3,0.6c-0.6,0.5-0.8,1-0.8,1.9c0,1.9,0.5,18,0.6,19.4
		c0.2,2.9,0.8,4.6,2.1,4.8c0.9,0.2,2.9,0.8,4,1.2c1.5,0.5,1.9,1.1,1.9,1.5c0,0.7-1.1,1.1-2.6,1.1c-2.8,0-7.6-0.5-13.1-0.5
		c-2,0-3.9,0.3-6.1,0.3c-1,0-2.2-0.3-2.2-1.3c0-0.7,1.4-1.1,2.1-1.4c3.3-1.2,3.5-2.2,3.6-7.8V47.5c0-1.7-0.2-3.1-0.7-3.5
		c-1.5-1.2-3.3-2.9-3.3-3.3C977.1,40.5,977.3,39.2,978.3,38.9z"/>
	<path d="M237.5,125.7c-0.3-4.5-0.3-5.9-4.8-7c-2.2-0.6-2.8-1.2-2.8-1.9c0-0.7,1.3-1.3,3-1.3c2.7,0,7.5,0.3,10.6,0.3
		c4.6,0,7.8-0.3,11.1-0.3c1.6,0,2.9,0.4,2.9,1.3c0,0.8-1.3,1.6-2.9,1.9c-4.6,0.8-4.9,3.3-5.1,5.7c-0.3,2.3-0.4,5.6-0.4,21.6
		c0,11.3,0.1,15.2,0.3,18c0.4,5.5,0.9,6.6,6.1,8c1.7,0.4,2.6,1,2.6,2s-1.8,1.2-2.9,1.2c-3.7,0-10-0.6-13.9-0.5
		c-2.7,0-5.5,0.3-8.9,0.3c-2.2,0-2.9-0.7-2.9-1.6c0-0.7,0.8-1.3,2.8-1.8c4.3-1,4.9-3,5.1-7c0.3-3.5,0.5-13.1,0.5-21
		C237.8,138.9,237.8,129.3,237.5,125.7z"/>
	<path d="M287.4,137.3c0.4,0.1,0.7-0.5,0.7-0.8c0.5-2.8,0.1-15.2-0.2-17.5c-0.1-0.7-0.1-2.2-3.9-3.9c-0.8-0.4-1.3-0.7-1.3-0.9
		c0-0.5,1.1-1.7,1.7-1.8c2.4-0.4,9.1-1.7,11.7-2.7c0.7-0.3,1.2-0.5,1.8-0.5c0.4,0,0.9,0.9,0.8,1.9c-0.4,3.5-0.8,14.4-0.8,35.3
		c0,11.5,0.2,16.2,0.2,17.9c0.1,5.7,0.8,6.5,1.7,6.5c0.7,0,3.5-0.4,4.6-0.4c0.4,0,0.6,0.7,0.6,0.7c0,0.6-1.5,2.3-2,2.5
		c-2.5,0.4-8.1,1.2-9.9,1.9c-2.2,0.7-3.6,1-4.1,1s-1.1-0.7-1.1-1.3c0-0.7,0.2-2.1,0.2-3.5c0-0.5-0.5-0.7-0.7-0.7
		c-3.3,2.7-8,4.4-11.4,4.4c-4.8,0-8.4-1.9-11.2-4.5c-3.7-3.4-5.1-8.6-5.1-13.1c0-9.6,5.5-14.6,10-17.3c3.5-2.1,9.1-3.5,12.5-3.5
		C284.6,137.1,285.9,137.1,287.4,137.3z M273.4,143.2c-2.5,2.7-3.4,8.1-3.4,11.3c0,7.9,5.3,15.5,12.5,15.5c1.8,0,3.3-0.4,4.5-1.4
		c0.4-0.2,1.3-3,1.3-4.4c0.1-3.3,0.2-12.6-0.1-16.1c-0.1-0.5-0.8-2.8-1.7-3.7c-2.6-3.1-5.7-4.1-7.5-4.1
		C277.4,140.4,275.4,141.3,273.4,143.2z"/>
	<path d="M337.2,140.8c2.1,2,3.5,4.9,3.5,8.2c0,0.7-0.9,2.2-2,2.2h-20.3c-0.5,0-0.9,0.3-1,0.7c-0.3,0.7-0.4,2.2-0.4,3.3
		c0,2,1.1,6.3,2.9,8.6c2.3,3,6.2,4.6,10.3,4.6c3.9,0,6.6-0.9,8.4-3.3c0.4-0.6,0.8-1.1,1.2-1.1c0.4,0,0.8,0.7,0.8,1.2
		s-0.3,1.6-0.7,2.3c-2.9,4.5-7.3,8.1-14.9,8.1c-10.7,0-17.2-8.1-17.2-18.7c0-7.4,4.1-14.9,11.8-18.4c2.3-1.1,5.1-1.8,7.6-1.8
		C331,136.9,334.8,138.4,337.2,140.8z M318,147.4c-0.1,0.5,0.3,0.9,0.7,0.9c2.4,0.1,5.3,0,9.9,0c1.5,0,3.3-0.9,3.3-3.2
		c0-2.6-2.6-5.7-5.2-5.7C322.7,139.5,319.1,143.2,318,147.4z"/>
	<path d="M372.8,141.9c1.1,1.5,2,3.8,2,8c0,3.6-0.4,14.7-0.4,15.7c0,2.6,1.9,3.7,3.4,3.7c0.5,0,2.3-0.7,3.3-1.1
		c0.3-0.2,0.4-0.1,0.6,0.1c0.2,0.4,0.3,1,0.3,1.3c0,1.8-4.4,6.3-9.6,6.3c-2.7,0-5.6-0.8-7-4.5c-0.1-0.4-0.7-0.6-0.8-0.4
		c-2.3,1.7-6.1,3.4-7.3,3.9c-1,0.4-2.9,0.7-4.1,0.7c-3.4,0-7.2-4.2-7.2-9.4c0-1.7,0.7-3.4,1.7-4.7c0.9-1.3,2.5-1.9,3.3-2.2
		c2-0.8,10.5-3.2,12.6-3.8c1.1-0.4,1.7-1,1.7-1.4c0.1-0.8,0.3-6,0.2-7.2c-0.1-2.2-2-6-6.2-6c-1.3,0-2.3,0.2-3,0.7
		c-0.4,0.2-0.6,1.1-0.6,4.3c0,0.4-0.2,0.7-0.4,0.8c-0.7,0.7-7.6,3.7-8.2,3.7c-0.6,0-1.2-0.7-1.2-1.3c0-2.7,2-5.2,7.8-8.9
		c3.4-2.2,8-3.4,9.3-3.4C368.8,136.9,371.4,139.9,372.8,141.9z M364.1,169.1c0.5-0.3,0.8-1.4,0.8-1.8c0.2-1.3,0.4-5.2,0.4-8.3
		c0-0.4-0.4-0.9-0.7-0.9c-1.6,0-5.9,1.4-7.5,2.4c-1.1,0.8-1.7,1.3-1.7,3.7c0,4.1,3.3,6,5.1,6C361.4,170.2,363.2,169.6,364.1,169.1z"
		/>
	<path d="M407.9,137.9c0.4,0,1.4,0.4,1.4,1c0-0.3,0.3,2.7,0.3,3.8c0,0.9-1.8,1.1-2.4,1.1h-8.8c-0.6,0-0.9,0.5-0.9,0.7
		c0,4.6-0.1,13.3-0.1,18.8c0,2.3,0.5,3.4,1.5,4.4c1,0.9,3.1,1.6,4.6,1.6c0.9,0,2.9-0.7,4.1-1.3c0.7-0.5,1.2-0.7,1.6-0.7
		c0.3,0,0.7,0.5,0.7,1.5c0,0.8-0.9,2-1.5,2.7c-2.5,2.6-6.2,4.4-10.6,4.4c-3.7,0-7.2-1.9-8.6-4c-1.2-1.6-1.7-3-1.7-6.6
		c0-3.4,0.4-16.9,0.4-20.2c0-0.7-1.6-1.3-3.5-2c-0.7-0.3-1.1-1-1.1-1.6c0-0.4,0.1-0.6,0.5-0.8c4.6-3.1,7.7-5.3,9.8-7.4
		c1.1-1.3,1.8-2,2.1-2c0.7,0,1.9,0.9,1.9,1.6v4.6c0,0.3,0.5,0.8,0.8,0.8C400.1,138.2,407.5,137.9,407.9,137.9z"/>
	<path d="M414,175.1c-1.5,0-2.6-0.6-2.6-1.2s0.7-1.1,2.4-1.7c2.2-0.7,3.3-1.8,3.4-2.7c0.4-1.3,0.6-7.9,0.6-14.5c0-2.8,0-7.3-0.2-8.4
		c-0.1-0.7-1.2-1.7-3.2-3.3c-0.6-0.6-1.1-1-1.1-1.5c0-0.7,1-1.5,2.5-1.8c3.8-0.7,9.7-3,11.2-3.3c0.5,0,0.9,0.7,0.9,1
		c-0.2,3.2-0.5,15.6-0.5,21c0,2.9,0.1,6.1,0.2,9.4c0.1,2.8,1.2,3.2,3.6,3.9c1.4,0.5,2,1,2,1.8s-1.3,1.2-2.6,1.2
		c-0.7,0-5.7-0.3-7.7-0.3C420.1,174.7,415.6,175.1,414,175.1z M428.2,123.2c0,3.1-3.3,5.7-5.6,5.7c-0.8,0-2.7-0.6-3.7-1.6
		c-0.9-0.9-1.8-2.2-1.8-4.1c0-1.1,0.5-3,1.5-4.1c1.1-1,2.9-1.7,4.6-1.7C426.5,117.5,428.2,121.1,428.2,123.2z"/>
	<path d="M478.2,156.2c0,7.9-4.8,13.6-8.3,15.8c-3.8,2.7-8.6,3.8-12.8,3.8c-4.2,0-9.4-2-12.8-4.8c-4-3.3-7-9.1-7-14.3
		c0-6.5,2.9-11.4,6.4-14.4c2.8-2.4,8-5.4,14.9-5.4C467.9,136.9,478.2,144.1,478.2,156.2z M452.2,142c-2.1,2-3.8,6-3.8,12.2
		c0,3.1,0.4,6.6,1.1,8.9c2,6.5,6.2,9.7,10.1,9.7c0.9,0,2.7-0.7,4.1-2.3c2-2.5,3.4-7.4,3.4-12.7c0-3.9-0.8-9.9-3.7-14
		c-1.7-2.1-4.1-3.7-6.7-3.7C455.2,140,453.7,140.6,452.2,142z"/>
	<path d="M486.1,140.2c1.9-0.6,6-2,7.5-2.8s2.7-1.4,3.2-1.4c0.4,0,1,1,1,1.4c0,1-0.1,3.3-0.1,4.1c0,0.6,0.6,0.5,0.7,0.5
		c3.7-2.8,7.6-5,11.8-5c4.6,0,7.3,2.2,8.6,3.7c2.1,2.4,3.3,6.5,3.3,11.3c0,2,0.2,15.6,0.3,16.9c0.2,1.4,0.8,2.5,3.3,3.2
		c1.8,0.5,2.4,0.9,2.4,1.7c0,0.7-1.1,1.3-2.7,1.3c-2.2,0-5.9-0.2-8.5-0.2c-2.3,0-6,0.3-7.3,0.3c-1.3,0-2.5-0.3-2.5-1.3
		c0-0.7,1-1.2,2.2-1.6c2.1-0.8,2.6-1.7,2.8-4.7c0.2-3.1,0.2-14.6,0.2-17.3c0-1.9-0.7-4.4-2-5.6c-1-0.9-3.3-2-5.3-2
		c-3.3,0-4.8,0.9-6.1,1.9c-0.4,0.3-0.8,1.5-0.9,2c-0.1,1.6,0.1,21.6,0.2,22.7c0.1,1.3,0.4,2,3.3,2.9c0.8,0.4,1.6,1,1.6,1.6
		c0,0.7-1,1.3-2.6,1.3c-1.8,0-5.2-0.2-7.2-0.2c-3.4,0-7.1,0.3-8.6,0.3c-1.6,0-2.5-0.6-2.5-1.4c0-0.7,0.9-1.2,2-1.5
		c3.1-1,3.5-1.8,3.8-5.2c0.3-2.8,0.5-10.2,0.5-19.6c0-1-0.7-2-2.7-3.8c-0.7-0.7-1-1-1-1.3C484.4,141.6,485.4,140.4,486.1,140.2z"/>
	<path d="M576.5,141.9c1.1,1.5,2,3.8,2,8c0,3.6-0.4,14.7-0.4,15.7c0,2.6,1.9,3.7,3.4,3.7c0.5,0,2.3-0.7,3.3-1.1
		c0.3-0.2,0.4-0.1,0.6,0.1c0.2,0.4,0.3,1,0.3,1.3c0,1.8-4.4,6.3-9.6,6.3c-2.7,0-5.6-0.8-7-4.5c-0.1-0.4-0.7-0.6-0.8-0.4
		c-2.3,1.7-6.1,3.4-7.3,3.9c-1,0.4-2.9,0.7-4.1,0.7c-3.4,0-7.2-4.2-7.2-9.4c0-1.7,0.7-3.4,1.7-4.7c0.9-1.3,2.5-1.9,3.3-2.2
		c2-0.8,10.5-3.2,12.6-3.8c1.1-0.4,1.7-1,1.7-1.4c0.1-0.8,0.3-6,0.2-7.2c-0.1-2.2-2-6-6.2-6c-1.3,0-2.3,0.2-3,0.7
		c-0.4,0.2-0.6,1.1-0.6,4.3c0,0.4-0.2,0.7-0.4,0.8c-0.7,0.7-7.6,3.7-8.2,3.7c-0.6,0-1.2-0.7-1.2-1.3c0-2.7,2-5.2,7.8-8.9
		c3.4-2.2,8-3.4,9.3-3.4C572.5,136.9,575.1,139.9,576.5,141.9z M567.7,169.1c0.5-0.3,0.8-1.4,0.8-1.8c0.2-1.3,0.4-5.2,0.4-8.3
		c0-0.4-0.4-0.9-0.7-0.9c-1.6,0-5.9,1.4-7.5,2.4c-1.1,0.8-1.7,1.3-1.7,3.7c0,4.1,3.3,6,5.1,6C565,170.2,566.9,169.6,567.7,169.1z"/>
	<path d="M591.2,140.2c1.9-0.6,6-2,7.5-2.8c1.5-0.7,2.7-1.4,3.2-1.4c0.4,0,1,1,1,1.4c0,1-0.1,3.3-0.1,4.1c0,0.6,0.6,0.5,0.7,0.5
		c3.7-2.8,7.6-5,11.8-5c4.6,0,7.3,2.2,8.6,3.7c2.1,2.4,3.3,6.5,3.3,11.3c0,2,0.2,15.6,0.3,16.9c0.2,1.4,0.8,2.5,3.3,3.2
		c1.8,0.5,2.4,0.9,2.4,1.7c0,0.7-1.1,1.3-2.7,1.3c-2.2,0-5.9-0.2-8.5-0.2c-2.3,0-6,0.3-7.3,0.3s-2.5-0.3-2.5-1.3
		c0-0.7,1-1.2,2.2-1.6c2.1-0.8,2.6-1.7,2.8-4.7c0.2-3.1,0.2-14.6,0.2-17.3c0-1.9-0.7-4.4-2-5.6c-1-0.9-3.3-2-5.3-2
		c-3.3,0-4.8,0.9-6.1,1.9c-0.4,0.3-0.8,1.5-0.9,2c-0.1,1.6,0.1,21.6,0.2,22.7c0.1,1.3,0.4,2,3.3,2.9c0.8,0.4,1.6,1,1.6,1.6
		c0,0.7-1,1.3-2.6,1.3c-1.8,0-5.2-0.2-7.2-0.2c-3.4,0-7.1,0.3-8.6,0.3c-1.6,0-2.5-0.6-2.5-1.4c0-0.7,0.9-1.2,2-1.5
		c3.1-1,3.5-1.8,3.8-5.2c0.3-2.8,0.5-10.2,0.5-19.6c0-1-0.7-2-2.7-3.8c-0.7-0.7-1-1-1-1.3C589.5,141.6,590.5,140.4,591.2,140.2z"/>
	<path d="M664.3,137.3c0.4,0.1,0.7-0.5,0.7-0.8c0.5-2.8,0.1-15.2-0.2-17.5c-0.1-0.7-0.1-2.2-3.9-3.9c-0.8-0.4-1.3-0.7-1.3-0.9
		c0-0.5,1.1-1.7,1.7-1.8c2.4-0.4,9.1-1.7,11.7-2.7c0.7-0.3,1.2-0.5,1.8-0.5c0.4,0,0.9,0.9,0.8,1.9c-0.4,3.5-0.8,14.4-0.8,35.3
		c0,11.5,0.2,16.2,0.2,17.9c0.1,5.7,0.8,6.5,1.7,6.5c0.7,0,3.5-0.4,4.6-0.4c0.4,0,0.6,0.7,0.6,0.7c0,0.6-1.5,2.3-2,2.5
		c-2.5,0.4-8.1,1.2-9.9,1.9c-2.2,0.7-3.6,1-4.1,1s-1.1-0.7-1.1-1.3c0-0.7,0.2-2.1,0.2-3.5c0-0.5-0.5-0.7-0.7-0.7
		c-3.3,2.7-8,4.4-11.4,4.4c-4.8,0-8.4-1.9-11.2-4.5c-3.7-3.4-5.1-8.6-5.1-13.1c0-9.6,5.5-14.6,10-17.3c3.5-2.1,9.1-3.5,12.5-3.5
		C661.5,137.1,662.9,137.1,664.3,137.3z M650.4,143.2c-2.5,2.7-3.4,8.1-3.4,11.3c0,7.9,5.3,15.5,12.5,15.5c1.8,0,3.3-0.4,4.5-1.4
		c0.4-0.2,1.3-3,1.3-4.4c0.1-3.3,0.2-12.6-0.1-16.1c-0.1-0.5-0.8-2.8-1.7-3.7c-2.6-3.1-5.7-4.1-7.5-4.1
		C654.4,140.4,652.3,141.3,650.4,143.2z"/>
	<path d="M710.6,125.7c-0.3-4.5-0.3-5.9-4.8-7c-2.2-0.6-2.8-1.2-2.8-1.9c0-0.7,1.3-1.3,3-1.3c2.7,0,7.5,0.3,10.6,0.3
		c4.6,0,7.8-0.3,11.1-0.3c1.6,0,2.9,0.4,2.9,1.3c0,0.8-1.3,1.6-2.9,1.9c-4.6,0.8-4.9,3.3-5.1,5.7c-0.3,2.3-0.4,5.6-0.4,21.6
		c0,11.3,0.1,15.2,0.3,18c0.4,5.5,0.9,6.6,6.1,8c1.7,0.4,2.6,1,2.6,2s-1.8,1.2-2.9,1.2c-3.7,0-10-0.6-13.9-0.5
		c-2.7,0-5.5,0.3-8.9,0.3c-2.2,0-2.9-0.7-2.9-1.6c0-0.7,0.8-1.3,2.8-1.8c4.3-1,4.9-3,5.1-7c0.3-3.5,0.5-13.1,0.5-21
		C710.8,138.9,710.8,129.3,710.6,125.7z"/>
	<path d="M736.2,140.2c1.9-0.6,6-2,7.5-2.8c1.5-0.7,2.7-1.4,3.2-1.4c0.4,0,1,1,1,1.4c0,1-0.1,3.3-0.1,4.1c0,0.6,0.6,0.5,0.7,0.5
		c3.7-2.8,7.6-5,11.8-5c4.6,0,7.3,2.2,8.6,3.7c2.1,2.4,3.3,6.5,3.3,11.3c0,2,0.2,15.6,0.3,16.9c0.2,1.4,0.8,2.5,3.3,3.2
		c1.8,0.5,2.4,0.9,2.4,1.7c0,0.7-1.1,1.3-2.7,1.3c-2.2,0-5.9-0.2-8.5-0.2c-2.3,0-6,0.3-7.3,0.3s-2.5-0.3-2.5-1.3
		c0-0.7,1-1.2,2.2-1.6c2.1-0.8,2.6-1.7,2.8-4.7c0.2-3.1,0.2-14.6,0.2-17.3c0-1.9-0.7-4.4-2-5.6c-1-0.9-3.3-2-5.3-2
		c-3.3,0-4.8,0.9-6.1,1.9c-0.4,0.3-0.8,1.5-0.9,2c-0.1,1.6,0.1,21.6,0.2,22.7c0.1,1.3,0.4,2,3.3,2.9c0.8,0.4,1.6,1,1.6,1.6
		c0,0.7-1,1.3-2.6,1.3c-1.8,0-5.2-0.2-7.2-0.2c-3.4,0-7.1,0.3-8.6,0.3c-1.6,0-2.5-0.6-2.5-1.4c0-0.7,0.9-1.2,2-1.5
		c3.1-1,3.5-1.8,3.8-5.2c0.3-2.8,0.5-10.2,0.5-19.6c0-1-0.7-2-2.7-3.8c-0.7-0.7-1-1-1-1.3C734.5,141.6,735.6,140.4,736.2,140.2z"/>
	<path d="M779,137.7c1.1,0,8.6,0.5,9.7,0.5c2.4,0,5.3-0.3,6.5-0.3c1.5,0,2.2,0.5,2.2,1.1s-0.8,1.4-2.2,1.8c-2.3,0.6-2.3,1.5-1.7,3.2
		c2.1,6.4,6.3,15.6,7.1,16.8c0.3,0.5,0.6,0.2,0.7-0.2c1-1.9,5.4-12.9,6.3-15.8c0.7-2.4,0-3.4-2.9-4.3c-0.8-0.3-1.9-0.7-1.9-1.5
		c0-0.6,0.8-1.1,2.3-1.1c1.1,0,3.3,0.3,5.1,0.3c1.9,0,4.4-0.5,6.2-0.5c1,0,2.1,0.4,2.1,1c0,0.7-0.5,1.2-2.1,1.8
		c-2.1,0.7-3.4,1.9-5,4.5c-2.3,4.5-5,10.8-7.5,16.8c-2.7,6.6-3.2,8-4.6,12.2c-0.5,1.4-1.9,2.4-2.6,2.4c-0.5,0-1-0.7-1.4-1.7
		c-0.7-2-1.4-4.4-3.6-9.8c-2.3-6-7.3-17.4-9.2-20.7c-0.8-1.5-1.7-2.9-4-3.6c-1.4-0.6-2.2-0.9-2.2-1.8
		C776.4,138.3,777.8,137.7,779,137.7z"/>
	<path d="M848.3,140.8c2.1,2,3.5,4.9,3.5,8.2c0,0.7-0.9,2.2-2,2.2h-20.3c-0.5,0-0.9,0.3-1,0.7c-0.3,0.7-0.4,2.2-0.4,3.3
		c0,2,1.1,6.3,2.9,8.6c2.3,3,6.2,4.6,10.3,4.6c3.9,0,6.6-0.9,8.4-3.3c0.4-0.6,0.8-1.1,1.2-1.1s0.8,0.7,0.8,1.2s-0.3,1.6-0.7,2.3
		c-2.9,4.5-7.3,8.1-14.9,8.1c-10.7,0-17.2-8.1-17.2-18.7c0-7.4,4.1-14.9,11.8-18.4c2.3-1.1,5.1-1.8,7.6-1.8
		C842,136.9,845.8,138.4,848.3,140.8z M829,147.4c-0.1,0.5,0.3,0.9,0.7,0.9c2.4,0.1,5.3,0,10,0c1.5,0,3.3-0.9,3.3-3.2
		c0-2.6-2.6-5.7-5.2-5.7C833.8,139.5,830.1,143.2,829,147.4z"/>
	<path d="M858.9,140.2c1.9-0.6,6-2,7.5-2.8c1.5-0.7,2.7-1.4,3.2-1.4c0.4,0,1,1,1,1.4c0,1-0.1,3.3-0.1,4.1c0,0.6,0.6,0.5,0.7,0.5
		c3.7-2.8,7.6-5,11.8-5c4.6,0,7.3,2.2,8.6,3.7c2.1,2.4,3.3,6.5,3.3,11.3c0,2,0.2,15.6,0.3,16.9c0.2,1.4,0.8,2.5,3.3,3.2
		c1.8,0.5,2.4,0.9,2.4,1.7c0,0.7-1.1,1.3-2.7,1.3c-2.2,0-5.9-0.2-8.5-0.2c-2.3,0-6,0.3-7.3,0.3s-2.5-0.3-2.5-1.3
		c0-0.7,1-1.2,2.2-1.6c2.1-0.8,2.6-1.7,2.8-4.7c0.2-3.1,0.2-14.6,0.2-17.3c0-1.9-0.7-4.4-2-5.6c-1-0.9-3.3-2-5.3-2
		c-3.3,0-4.8,0.9-6.1,1.9c-0.4,0.3-0.8,1.5-0.9,2c-0.1,1.6,0.1,21.6,0.2,22.7c0.1,1.3,0.4,2,3.3,2.9c0.8,0.4,1.6,1,1.6,1.6
		c0,0.7-1,1.3-2.6,1.3c-1.8,0-5.2-0.2-7.2-0.2c-3.4,0-7.1,0.3-8.6,0.3c-1.6,0-2.5-0.6-2.5-1.4c0-0.7,0.9-1.2,2-1.5
		c3.1-1,3.5-1.8,3.8-5.2c0.3-2.8,0.5-10.2,0.5-19.6c0-1-0.7-2-2.7-3.8c-0.7-0.7-1-1-1-1.3C857.2,141.6,858.2,140.4,858.9,140.2z"/>
	<path d="M928.1,137.9c0.4,0,1.4,0.4,1.4,1c0-0.3,0.3,2.7,0.3,3.8c0,0.9-1.8,1.1-2.4,1.1h-8.8c-0.6,0-0.9,0.5-0.9,0.7
		c0,4.6-0.1,13.3-0.1,18.8c0,2.3,0.5,3.4,1.5,4.4c1,0.9,3.1,1.6,4.6,1.6c0.9,0,2.9-0.7,4.1-1.3c0.7-0.5,1.2-0.7,1.6-0.7
		c0.3,0,0.7,0.5,0.7,1.5c0,0.8-0.9,2-1.5,2.7c-2.5,2.6-6.2,4.4-10.6,4.4c-3.7,0-7.2-1.9-8.6-4c-1.2-1.6-1.7-3-1.7-6.6
		c0-3.4,0.4-16.9,0.4-20.2c0-0.7-1.6-1.3-3.5-2c-0.7-0.3-1.1-1-1.1-1.6c0-0.4,0.1-0.6,0.5-0.8c4.6-3.1,7.7-5.3,9.8-7.4
		c1.1-1.3,1.8-2,2.1-2c0.7,0,1.9,0.9,1.9,1.6v4.6c0,0.3,0.5,0.8,0.8,0.8C920.3,138.2,927.8,137.9,928.1,137.9z"/>
	<path d="M934.3,175.1c-1.5,0-2.6-0.6-2.6-1.2s0.7-1.1,2.4-1.7c2.2-0.7,3.3-1.8,3.4-2.7c0.4-1.3,0.6-7.9,0.6-14.5
		c0-2.8,0-7.3-0.2-8.4c-0.1-0.7-1.2-1.7-3.2-3.3c-0.6-0.6-1.1-1-1.1-1.5c0-0.7,1-1.5,2.5-1.8c3.8-0.7,9.7-3,11.2-3.3
		c0.5,0,0.9,0.7,0.9,1c-0.2,3.2-0.5,15.6-0.5,21c0,2.9,0.1,6.1,0.2,9.4c0.1,2.8,1.2,3.2,3.6,3.9c1.4,0.5,2,1,2,1.8s-1.3,1.2-2.6,1.2
		c-0.7,0-5.7-0.3-7.7-0.3C940.3,174.7,935.9,175.1,934.3,175.1z M948.4,123.2c0,3.1-3.3,5.7-5.6,5.7c-0.8,0-2.7-0.6-3.7-1.6
		c-0.9-0.9-1.8-2.2-1.8-4.1c0-1.1,0.5-3,1.5-4.1c1.1-1,2.9-1.7,4.6-1.7C946.7,117.5,948.4,121.1,948.4,123.2z"/>
	<path d="M998.4,156.2c0,7.9-4.8,13.6-8.3,15.8c-3.8,2.7-8.6,3.8-12.8,3.8c-4.2,0-9.4-2-12.8-4.8c-4-3.3-7-9.1-7-14.3
		c0-6.5,2.9-11.4,6.4-14.4c2.8-2.4,8-5.4,14.9-5.4C988.1,136.9,998.4,144.1,998.4,156.2z M972.5,142c-2.1,2-3.8,6-3.8,12.2
		c0,3.1,0.4,6.6,1.1,8.9c2,6.5,6.2,9.7,10.1,9.7c0.9,0,2.7-0.7,4.1-2.3c2-2.5,3.4-7.4,3.4-12.7c0-3.9-0.8-9.9-3.7-14
		c-1.7-2.1-4.1-3.7-6.7-3.7C975.5,140,974,140.6,972.5,142z"/>
	<path d="M1006.3,140.2c1.9-0.6,6-2,7.5-2.8c1.5-0.7,2.7-1.4,3.2-1.4c0.4,0,1,1,1,1.4c0,1-0.1,3.3-0.1,4.1c0,0.6,0.6,0.5,0.7,0.5
		c3.7-2.8,7.6-5,11.8-5c4.6,0,7.3,2.2,8.6,3.7c2.1,2.4,3.3,6.5,3.3,11.3c0,2,0.2,15.6,0.3,16.9c0.2,1.4,0.8,2.5,3.3,3.2
		c1.8,0.5,2.4,0.9,2.4,1.7c0,0.7-1.1,1.3-2.7,1.3c-2.2,0-5.9-0.2-8.5-0.2c-2.3,0-6,0.3-7.3,0.3s-2.5-0.3-2.5-1.3
		c0-0.7,1-1.2,2.2-1.6c2.1-0.8,2.6-1.7,2.8-4.7c0.2-3.1,0.2-14.6,0.2-17.3c0-1.9-0.7-4.4-2-5.6c-1-0.9-3.3-2-5.3-2
		c-3.3,0-4.8,0.9-6.1,1.9c-0.4,0.3-0.8,1.5-0.9,2c-0.1,1.6,0.1,21.6,0.2,22.7c0.1,1.3,0.4,2,3.3,2.9c0.8,0.4,1.6,1,1.6,1.6
		c0,0.7-1,1.3-2.6,1.3c-1.8,0-5.2-0.2-7.2-0.2c-3.4,0-7.1,0.3-8.6,0.3c-1.6,0-2.5-0.6-2.5-1.4c0-0.7,0.9-1.2,2-1.5
		c3.1-1,3.5-1.8,3.8-5.2c0.3-2.8,0.5-10.2,0.5-19.6c0-1-0.7-2-2.7-3.8c-0.7-0.7-1-1-1-1.3C1004.7,141.6,1005.7,140.4,1006.3,140.2z"
		/>
</g>
<g>
	<g>
		<path class="st1" d="M237.2,249.1c-1.1,0-1.7-1-1.7-2.5c0-3.5,2.5-9.1,4.7-12c1.2-1.6,2.2-2.1,3.1-2.1c1.3,0,1.5,1.3,1.5,2.5
			c0,3.1-2.3,8.7-4,11.2C239.4,248.3,238.4,249.1,237.2,249.1L237.2,249.1z M231.2,244.6c-0.1,3.4,1.9,6.2,5.8,6.2
			c2.1,0,4.7-0.6,7.5-3.3c3.2-3,4.6-7.3,4.6-10.2c0.1-3.5-1.6-6.4-5.8-6.4c-2.1,0-4.5,0.6-7.2,3.2
			C233.2,236.7,231.3,241.2,231.2,244.6L231.2,244.6z"/>
	</g>
	<g>
		<path d="M267.6,233.6c0.8-0.4,0.9-1.5,0.6-2.1h-5.6c1-3.6,2.1-7.2,3.6-10.3c1-2,2.1-3.2,3.2-3.2c0.9,0,2.3,1,2.7,4.2
			c0.1,0.7,0.4,0.9,1,0.9c1,0,2.5-1.2,2.5-3.2c0-1.9-1.8-3.6-4.7-3.6c-3.7,0-6.6,2-9,5.5c-1.9,2.8-3,6-4.1,9.7h-4.2
			c-0.7,0.3-1,1.4-0.6,2.1h4.2c-2.4,8.3-4.6,17.4-6.2,23.1c-0.9,3.3-1.6,4-2.3,4c-0.8,0-1.8-0.9-2.7-2.4c-0.4-0.6-0.8-0.9-1.5-0.9
			c-0.9,0-1.8,0.9-1.8,2.2c0,1.7,1.7,3.2,4,3.2c2.9,0,5.4-2,6.4-3.3c1.2-1.5,2.5-4.3,3.6-8c1.5-4.6,3.6-13.2,5.2-17.9H267.6
			L267.6,233.6z"/>
	</g>
	<g>
		<path d="M288,250.1c3.5,0,7.9,0,11.1,0.1c1-1.3,2.7-4.9,3.3-6.8c-0.3-0.5-0.9-0.6-1.5-0.3c-3.3,4.9-5.2,5.1-10,5.1
			c-2.9,0-3.9-0.3-4.3-1.2c-0.4-0.9,0-2.4,0.7-4.7l5.2-16.6c1.4-4.6,1.7-5,4.1-5.4l1.3-0.2c0.5-0.2,0.5-1.1,0.1-1.4
			c-2.5,0.1-4.2,0.1-6.4,0.1c-2.1,0-4.1,0-6.4-0.1c-0.6,0.2-0.7,1.1-0.3,1.4l1.2,0.2c2.4,0.4,2.4,1.2,1.1,5.3l-5.6,17.5
			c-1.4,4.6-1.8,5.1-4,5.4l-1.3,0.2c-0.5,0.2-0.5,1.1-0.1,1.4c2-0.1,3.8-0.1,6.1-0.1H288L288,250.1z"/>
	</g>
	<g>
		<path class="st1" d="M309.7,249.1c-1.1,0-1.7-1-1.7-2.5c0-3.5,2.4-9.1,4.7-12c1.2-1.6,2.2-2.1,3.1-2.1c1.3,0,1.5,1.3,1.5,2.5
			c0,3.1-2.3,8.7-4,11.2C311.8,248.3,310.8,249.1,309.7,249.1L309.7,249.1z M303.6,244.6c-0.1,3.4,1.9,6.2,5.8,6.2
			c2.1,0,4.7-0.6,7.5-3.3c3.2-3,4.6-7.3,4.6-10.2c0.1-3.5-1.6-6.4-5.8-6.4c-2.1,0-4.5,0.6-7.2,3.2
			C305.6,236.7,303.7,241.2,303.6,244.6L303.6,244.6z"/>
	</g>
	<g>
		<path d="M331.9,230.9c-2.9,0-5.3,2.7-6.5,4.9c-0.1,0.6,0.3,0.9,0.8,0.9c1.1-1.3,2.6-2.6,3.7-2.6c0.5,0,0.5,0.5,0.3,1.2
			c-1.3,4.3-3.7,10.8-4.7,13.9c-0.4,1.3,1.2,1.6,2.2,1.6c0.8,0,1.4-0.2,1.6-0.8c1.9-4.5,3.9-9.1,5.7-11.9c1.6-2.6,2.6-3.6,3.2-3.6
			c0.5,0,0.8,0.5,0.9,1.4c0.2,0.9,0.4,1.4,0.9,1.4c1.5,0,2.5-2.3,2.5-3.8c0-1.3-0.7-2.6-2.2-2.6c-1.4,0-2.7,1.1-4.2,3
			c-1.2,1.5-2.8,4.1-4.2,6.7h-0.3l1.7-4.9C334,233.6,334.4,230.9,331.9,230.9L331.9,230.9z"/>
	</g>
	<g>
		<path class="st1" d="M358.6,232.8c-0.3-0.4-0.8-0.8-1-0.9c-0.3-0.1-0.7-0.3-1.1-0.3c-1.1,0-2.3,0.3-3.7,1
			c-1.6,0.8-3.8,2.3-5.9,4.7c-3.6,4.1-5.5,8.9-5.5,10.7c0,1.5,1,2.8,2.5,2.8c2.7,0,7.5-3.4,10.8-7.9h0.1l-1.7,4.5
			c-0.3,0.9-0.5,1.5-0.5,1.9c0,0.6,0.4,1.5,1.6,1.5c3,0,6.7-2.6,8.8-5.3c0-0.6-0.4-0.9-0.8-0.9c-2.1,2-4,3.1-4.7,3.1
			c-0.3,0-0.5-0.2-0.2-0.8c1.7-4.9,4.8-12.7,6.1-15.8c-0.4-0.8-1.7-1.1-2.6-1.1c-0.4,0-0.8,0.1-0.9,0.2L358.6,232.8L358.6,232.8z
			 M355.3,233.5c0.9,0,1.7,0.5,2.1,1.7c-0.7,2.2-2.8,6.4-5.2,8.9c-2.1,2.1-4.1,3.8-4.8,3.8c-0.4,0-0.6-0.4-0.6-0.9
			c0.1-3.1,2.5-8.4,5.2-11.3C353.5,234,354.3,233.5,355.3,233.5L355.3,233.5z"/>
	</g>
	<g>
		<path class="st1" d="M376.5,234.2c0.5-1,0.6-1.6,0.5-2c-0.1-0.7-0.9-1.3-1.6-1.3c-2.1,0-6.1,2.1-8.7,5c-0.1,0.4,0.2,0.9,0.7,0.9
			c1.5-1.3,3.5-2.5,4.1-2.5c0.3,0,0.3,0.3,0.1,0.8l-5.2,12.4c-0.3,0.8-0.4,1.3-0.4,1.8c0,0.4,0.7,1.5,1.5,1.5c3.6,0,8.1-3.6,9.4-5.6
			c0.1-0.5-0.3-0.9-0.8-0.9c-1.4,1.5-4,3.3-4.7,3.3c-0.4,0-0.3-0.4-0.1-0.9L376.5,234.2L376.5,234.2z M376.2,225.3
			c1.9,0,3.2-1.7,3.2-3.4c0-1.5-0.8-2.3-2.3-2.3c-2.1,0-3.2,1.8-3.2,3.4C373.9,224.2,374.6,225.3,376.2,225.3L376.2,225.3z"/>
	</g>
	<g>
		<path d="M398.6,230.9c-4.1,0-8.4,5.6-11.4,9.8H387l2.9-7.3c0.4-1,0.3-2.5-1.4-2.5c-3.2,0-6.6,2.5-8.1,5c0,0.4,0.3,0.8,0.8,0.8
			c1.3-1.2,3.1-2.5,4.1-2.5c0.6,0,0.5,0.7,0.2,1.4c-0.5,1.3-4.8,13-5,13.6c-0.4,1.3,1.2,1.6,2.1,1.6c0.8,0,1.3-0.2,1.6-0.8
			c2.3-4.9,4.6-9.2,7.2-12.5c2.2-2.7,4.2-4.2,5-4.2c0.6,0,0.7,0.4,0.7,0.8c0,0.8-0.4,1.9-0.8,2.8c-1.1,2.8-2.7,6.7-4,9.5
			c-0.7,1.6-0.8,2.2-0.8,2.8c0,0.7,0.8,1.5,1.6,1.5c3.7,0,7.4-3,9.1-5.6c0-0.6-0.3-0.9-0.8-0.8c-1.3,1.5-3.6,3.2-4.3,3.2
			c-0.4,0-0.3-0.4-0.1-0.9c0.8-1.9,3-7,3.9-9.3c0.5-1.2,0.8-2.8,0.8-3.7C401.4,232.2,400.6,230.9,398.6,230.9L398.6,230.9z"/>
	</g>
	<g>
		<path d="M437.2,218.3c-6.7,0-12.1,2.5-15.5,5.6c-3.8,3.3-6.8,8.7-6.8,14.7c-0.1,8.2,5.8,12.4,13.9,12.4c1.8,0,3.3-0.3,4.7-0.5
			c1.5-0.3,2.7-0.6,3.7-0.7c1.1-2,2.5-5,3.2-7.1c-0.3-0.4-0.9-0.5-1.4-0.2c-2.8,4-5.7,6.6-10.1,6.6c-4.7,0-8.2-2.9-8.2-10
			c0-5.3,2.5-10.4,5-13.3c3.5-4,7.5-5.6,11.1-5.6c4.3,0,5.9,2.1,5.4,6.5c0.1,0.5,1.2,0.5,1.5,0.1c0.5-2.1,1.3-4.7,2.2-6.8
			C444.6,219.4,441.2,218.3,437.2,218.3L437.2,218.3z"/>
	</g>
	<g>
		<path class="st1" d="M449.7,249.1c-1.1,0-1.7-1-1.7-2.5c0-3.5,2.5-9.1,4.7-12c1.2-1.6,2.2-2.1,3.1-2.1c1.3,0,1.5,1.3,1.5,2.5
			c0,3.1-2.3,8.7-4,11.2C451.9,248.3,450.8,249.1,449.7,249.1L449.7,249.1z M443.7,244.6c-0.1,3.4,1.9,6.2,5.8,6.2
			c2.1,0,4.7-0.6,7.5-3.3c3.2-3,4.6-7.3,4.6-10.2c0.1-3.5-1.6-6.4-5.8-6.4c-2.1,0-4.5,0.6-7.2,3.2
			C445.7,236.7,443.8,241.2,443.7,244.6L443.7,244.6z"/>
	</g>
	<g>
		<path d="M466.3,246.2c-0.3,0.8-0.6,1.7-0.6,2.3c0,1.1,0.9,2.3,2.3,2.3c3.1,0,8.6-5.7,11.6-9.7h0.1l-2.9,7.6
			c-0.4,1.1,0.4,2.1,1.4,2.1c3.3,0,7.8-3.6,9.1-5.9c0-0.7-0.4-0.8-0.8-0.8c-1.2,1.4-3.7,3.4-4.5,3.4c-0.5,0-0.5-0.5-0.2-1.3
			c1.9-5.1,4.4-11.3,5.6-14.4c-0.2-0.5-1.3-0.9-2.4-0.9c-0.6,0-1,0-1.4,0.2c-1.8,3.8-5,9.9-8.9,13.7c-1.7,1.6-2.9,2.5-3.4,2.5
			c-0.5,0-0.7-0.5-0.3-1.3l4.9-12.1c0.2-0.5,0.3-1.1,0.3-1.3c0-0.8-0.8-1.7-1.8-1.7c-3.4,0-7.4,3.4-9,5.6c-0.1,0.6,0.3,0.9,0.8,0.9
			c1.3-1.3,3.4-3.2,4.3-3.2c0.4,0,0.4,0.5,0.1,1.2L466.3,246.2L466.3,246.2z"/>
	</g>
	<g>
		<path d="M508.5,230.9c-4.1,0-8.4,5.6-11.4,9.8H497l2.9-7.3c0.4-1,0.3-2.5-1.4-2.5c-3.2,0-6.6,2.5-8.1,5c0,0.4,0.3,0.8,0.8,0.8
			c1.3-1.2,3.1-2.5,4.1-2.5c0.6,0,0.5,0.7,0.2,1.4c-0.5,1.3-4.8,13-5,13.6c-0.4,1.3,1.2,1.6,2.1,1.6c0.8,0,1.3-0.2,1.6-0.8
			c2.3-4.9,4.6-9.2,7.2-12.5c2.2-2.7,4.2-4.2,5-4.2c0.6,0,0.7,0.4,0.7,0.8c0,0.8-0.4,1.9-0.8,2.8c-1.1,2.8-2.7,6.7-4,9.5
			c-0.7,1.6-0.8,2.2-0.8,2.8c0,0.7,0.8,1.5,1.6,1.5c3.7,0,7.5-3,9.1-5.6c0-0.6-0.3-0.9-0.8-0.8c-1.3,1.5-3.6,3.2-4.3,3.2
			c-0.4,0-0.3-0.4-0.1-0.9c0.8-1.9,3-7,3.9-9.3c0.5-1.2,0.8-2.8,0.8-3.7C511.4,232.2,510.6,230.9,508.5,230.9L508.5,230.9z"/>
	</g>
	<g>
		<path d="M530,233.9c0.6-0.3,0.9-1.5,0.4-2.1h-4.7l1.3-4.4c-0.2-0.4-0.8-0.6-1.5-0.6c-0.5,0-0.8,0-1.1,0.2l-3,4.6l-4,0.8
			c-0.5,0.3-0.8,1.1-0.5,1.5h3.6l-4.3,12.7c-0.4,1.3-0.6,1.9-0.6,2.6c0,0.8,0.8,1.6,1.7,1.6c3,0,7.6-3.3,9.7-6.5
			c0.1-0.7-0.2-0.9-0.8-1c-1.7,1.9-4.4,4-5.2,4c-0.5,0-0.6-0.4-0.3-1.1l4.2-12.2H530L530,233.9z"/>
	</g>
	<g>
		<path d="M535.7,230.9c-3.3,0-5.4,4-6.3,6.9c0.1,0.5,0.8,0.8,1.2,0.5c0.8-1.8,1.9-3.6,2.9-3.6c1,0,1.7,2.7,1.7,8.1
			c0.2,4.7-0.2,8.1-0.8,10.4c-0.6,2.5-1.7,4.5-2.9,5.7c-0.8,0.8-1.9,1.2-2.6,1.2c-0.7,0-1-0.5-1.7-1.3c-0.5-0.6-0.8-1-1.6-1
			c-1.3,0-2.4,1-2.4,2.6c0,1.4,1.4,2.5,3.1,2.5c1.9,0,4.6-0.8,7.9-4.5c3.3-3.6,5.8-7.9,8-11.6c4.1-7.2,5.6-13,5.6-14
			c0-0.6-0.2-0.9-0.6-1.2c-0.5-0.3-1.2-0.5-1.7-0.5c-0.7,0-1.3,0.3-1.4,1.7c0,0.9-0.5,3.9-1,5.8c-1,3.8-2.4,7.5-4.1,10.6h-0.2
			c0.5-3.3,0.7-6.6,0.6-9.8C539.4,234.3,538.2,230.9,535.7,230.9L535.7,230.9z"/>
	</g>
	<g>
		<path d="M581.5,218.3c-6.7,0-12.1,2.5-15.5,5.6c-3.8,3.3-6.8,8.7-6.8,14.7c-0.1,8.2,5.8,12.4,13.9,12.4c1.8,0,3.3-0.3,4.7-0.5
			c1.5-0.3,2.7-0.6,3.7-0.7c1.1-2,2.5-5,3.2-7.1c-0.3-0.4-0.9-0.5-1.4-0.2c-2.8,4-5.7,6.6-10.1,6.6c-4.7,0-8.2-2.9-8.2-10
			c0-5.3,2.4-10.4,4.9-13.3c3.5-4,7.5-5.6,11.1-5.6c4.3,0,5.9,2.1,5.4,6.5c0.1,0.5,1.2,0.5,1.5,0.1c0.5-2.1,1.3-4.7,2.2-6.8
			C588.8,219.4,585.4,218.3,581.5,218.3L581.5,218.3z"/>
	</g>
	<g>
		<path class="st1" d="M593.9,249.1c-1.1,0-1.7-1-1.7-2.5c0-3.5,2.5-9.1,4.7-12c1.2-1.6,2.2-2.1,3.1-2.1c1.3,0,1.5,1.3,1.5,2.5
			c0,3.1-2.3,8.7-4,11.2C596.1,248.3,595.1,249.1,593.9,249.1L593.9,249.1z M587.9,244.6c-0.1,3.4,1.9,6.2,5.8,6.2
			c2.1,0,4.7-0.6,7.5-3.3c3.2-3,4.6-7.3,4.6-10.2c0.1-3.5-1.6-6.4-5.8-6.4c-2.1,0-4.5,0.6-7.2,3.2
			C589.9,236.7,588,241.2,587.9,244.6L587.9,244.6z"/>
	</g>
	<g>
		<path d="M617.5,230.9c-4.1,0-6.9,2.3-8.2,4.9c0,0.5,0.4,0.8,0.8,0.8c0.9-1.1,2.5-2.6,4-2.6c0.7,0,0.8,0.4,0.3,1.6
			c-0.4,1.3-4.8,13.3-5,13.8c-0.3,1.1,0.9,1.4,2.4,1.4c0.8,0,1.1-0.2,1.4-0.8c2.2-4.7,4.4-9.2,6.8-12.3c2.4-3,4.2-4.3,5.2-4.3
			c0.5,0,0.7,0.4,0.7,0.9c0,0.7-0.6,2-0.8,2.7c-1,2.5-4.7,12.1-4.8,12.4c-0.4,1.1,1,1.4,2.4,1.4c0.8,0,1.1-0.2,1.5-0.8
			c2.4-4.7,4.6-9.2,7.1-12.4c2.3-2.9,4-4.2,4.9-4.2c0.6,0,0.7,0.4,0.7,0.9c0,0.7-0.4,1.8-0.8,2.8c-1.1,2.9-2.7,6.7-4,9.5
			c-0.7,1.6-0.9,2.2-0.9,2.8c0,0.7,0.8,1.5,1.7,1.5c3.7,0,7.6-2.9,9.1-5.6c0-0.6-0.3-0.9-0.8-0.8c-1.3,1.5-3.5,3.2-4.3,3.2
			c-0.4,0-0.4-0.4-0.1-0.9c0.8-1.9,3.1-7,3.9-9.3c0.5-1.3,0.8-2.7,0.8-3.6c0-1.4-0.8-2.7-2.9-2.7c-3.3,0-7.1,3.4-10.9,9.6h-0.1
			c0.8-1.8,1.8-4.5,2.1-5.5c0.4-1.5,0.5-4.1-2.4-4.1c-3.6,0-7.8,4.9-10.8,9.4h-0.1l2.7-7C619.4,232.3,619.2,230.9,617.5,230.9
			L617.5,230.9z"/>
	</g>
	<g>
		<path d="M653.7,230.9c-4.1,0-6.9,2.3-8.2,4.9c0,0.5,0.4,0.8,0.8,0.8c0.9-1.1,2.5-2.6,4-2.6c0.7,0,0.8,0.4,0.3,1.6
			c-0.4,1.3-4.8,13.3-5,13.8c-0.3,1.1,0.9,1.4,2.4,1.4c0.8,0,1.1-0.2,1.4-0.8c2.2-4.7,4.4-9.2,6.8-12.3c2.4-3,4.2-4.3,5.2-4.3
			c0.5,0,0.7,0.4,0.7,0.9c0,0.7-0.6,2-0.8,2.7c-1,2.5-4.7,12.1-4.8,12.4c-0.4,1.1,1,1.4,2.4,1.4c0.8,0,1.1-0.2,1.5-0.8
			c2.4-4.7,4.6-9.2,7.1-12.4c2.3-2.9,4-4.2,4.9-4.2c0.6,0,0.7,0.4,0.7,0.9c0,0.7-0.4,1.8-0.8,2.8c-1.1,2.9-2.7,6.7-4,9.5
			c-0.7,1.6-0.9,2.2-0.9,2.8c0,0.7,0.8,1.5,1.7,1.5c3.7,0,7.6-2.9,9.1-5.6c0-0.6-0.3-0.9-0.8-0.8c-1.3,1.5-3.5,3.2-4.3,3.2
			c-0.4,0-0.4-0.4-0.1-0.9c0.8-1.9,3.1-7,3.9-9.3c0.5-1.3,0.8-2.7,0.8-3.6c0-1.4-0.8-2.7-2.9-2.7c-3.3,0-7.1,3.4-10.9,9.6h-0.1
			c0.8-1.8,1.8-4.5,2.1-5.5c0.4-1.5,0.5-4.1-2.4-4.1c-3.6,0-7.8,4.9-10.8,9.4h-0.1l2.7-7C655.7,232.3,655.4,230.9,653.7,230.9
			L653.7,230.9z"/>
	</g>
	<g>
		<path d="M683,246.2c-0.3,0.8-0.6,1.7-0.6,2.3c0,1.1,0.9,2.3,2.3,2.3c3.1,0,8.6-5.7,11.6-9.7h0.1l-2.9,7.6
			c-0.4,1.1,0.4,2.1,1.4,2.1c3.3,0,7.8-3.6,9.1-5.9c0-0.7-0.4-0.8-0.8-0.8c-1.2,1.4-3.7,3.4-4.5,3.4c-0.5,0-0.5-0.5-0.2-1.3
			c1.9-5.1,4.4-11.3,5.6-14.4c-0.2-0.5-1.3-0.9-2.4-0.9c-0.6,0-1,0-1.4,0.2c-1.8,3.8-4.9,9.9-8.9,13.7c-1.7,1.6-2.9,2.5-3.4,2.5
			c-0.5,0-0.7-0.5-0.3-1.3l4.9-12.1c0.2-0.5,0.3-1.1,0.3-1.3c0-0.8-0.8-1.7-1.8-1.7c-3.4,0-7.5,3.4-9,5.6c-0.1,0.6,0.3,0.9,0.8,0.9
			c1.3-1.3,3.4-3.2,4.3-3.2c0.4,0,0.4,0.5,0.1,1.2L683,246.2L683,246.2z"/>
	</g>
	<g>
		<path d="M725.2,230.9c-4.1,0-8.4,5.6-11.4,9.8h-0.2l2.9-7.3c0.4-1,0.3-2.5-1.4-2.5c-3.2,0-6.6,2.5-8.1,5c0,0.4,0.3,0.8,0.8,0.8
			c1.3-1.2,3.1-2.5,4.1-2.5c0.6,0,0.5,0.7,0.2,1.4c-0.5,1.3-4.8,13-5,13.6c-0.4,1.3,1.2,1.6,2.1,1.6c0.8,0,1.3-0.2,1.6-0.8
			c2.3-4.9,4.6-9.2,7.2-12.5c2.2-2.7,4.2-4.2,5-4.2c0.6,0,0.7,0.4,0.7,0.8c0,0.8-0.4,1.9-0.8,2.8c-1.1,2.8-2.7,6.7-4,9.5
			c-0.7,1.6-0.8,2.2-0.8,2.8c0,0.7,0.8,1.5,1.6,1.5c3.7,0,7.5-3,9.1-5.6c0-0.6-0.3-0.9-0.8-0.8c-1.3,1.5-3.6,3.2-4.3,3.2
			c-0.4,0-0.3-0.4-0.1-0.9c0.8-1.9,3-7,3.9-9.3c0.5-1.2,0.8-2.8,0.8-3.7C728.1,232.2,727.3,230.9,725.2,230.9L725.2,230.9z"/>
	</g>
	<g>
		<path class="st1" d="M742.8,234.2c0.5-1,0.6-1.6,0.5-2c-0.1-0.7-0.9-1.3-1.6-1.3c-2.1,0-6.1,2.1-8.7,5c-0.1,0.4,0.2,0.9,0.7,0.9
			c1.5-1.3,3.5-2.5,4.1-2.5c0.3,0,0.3,0.3,0.1,0.8l-5.2,12.4c-0.3,0.8-0.4,1.3-0.4,1.8c0,0.4,0.7,1.5,1.5,1.5c3.6,0,8.1-3.6,9.4-5.6
			c0.1-0.5-0.3-0.9-0.8-0.9c-1.4,1.5-4,3.3-4.7,3.3c-0.4,0-0.3-0.4-0.1-0.9L742.8,234.2L742.8,234.2z M742.4,225.3
			c1.9,0,3.2-1.7,3.2-3.4c0-1.5-0.8-2.3-2.3-2.3c-2.1,0-3.2,1.8-3.2,3.4C740.2,224.2,740.9,225.3,742.4,225.3L742.4,225.3z"/>
	</g>
	<g>
		<path d="M761,233.9c0.6-0.3,0.9-1.5,0.4-2.1h-4.7l1.3-4.4c-0.2-0.4-0.8-0.6-1.5-0.6c-0.5,0-0.8,0-1.1,0.2l-3,4.6l-4,0.8
			c-0.5,0.3-0.8,1.1-0.5,1.5h3.6l-4.3,12.7c-0.4,1.3-0.6,1.9-0.6,2.6c0,0.8,0.8,1.6,1.7,1.6c3,0,7.6-3.3,9.7-6.5
			c0.1-0.7-0.2-0.9-0.8-1c-1.7,1.9-4.4,4-5.2,4c-0.5,0-0.6-0.4-0.3-1.1l4.2-12.2H761L761,233.9z"/>
	</g>
	<g>
		<path d="M766.7,230.9c-3.3,0-5.4,4-6.3,6.9c0.1,0.5,0.8,0.8,1.2,0.5c0.8-1.8,1.9-3.6,2.9-3.6c1,0,1.7,2.7,1.7,8.1
			c0.2,4.7-0.2,8.1-0.8,10.4c-0.6,2.5-1.7,4.5-2.9,5.7c-0.8,0.8-1.9,1.2-2.6,1.2c-0.7,0-1-0.5-1.7-1.3c-0.5-0.6-0.8-1-1.6-1
			c-1.3,0-2.4,1-2.4,2.6c0,1.4,1.4,2.5,3.1,2.5c1.9,0,4.6-0.8,7.9-4.5c3.3-3.6,5.8-7.9,8-11.6c4.1-7.2,5.6-13,5.6-14
			c0-0.6-0.2-0.9-0.6-1.2c-0.5-0.3-1.2-0.5-1.7-0.5c-0.7,0-1.3,0.3-1.4,1.7c0,0.9-0.5,3.9-1,5.8c-1,3.8-2.4,7.5-4.1,10.6h-0.2
			c0.5-3.3,0.7-6.6,0.6-9.8C770.4,234.3,769.2,230.9,766.7,230.9L766.7,230.9z"/>
	</g>
	<g>
		<path d="M812.5,218.3c-6.7,0-12.1,2.5-15.5,5.6c-3.8,3.3-6.8,8.7-6.8,14.7c-0.1,8.2,5.8,12.4,13.9,12.4c1.8,0,3.3-0.3,4.7-0.5
			c1.5-0.3,2.7-0.6,3.7-0.7c1.1-2,2.5-5,3.2-7.1c-0.3-0.4-0.9-0.5-1.4-0.2c-2.8,4-5.7,6.6-10.1,6.6c-4.7,0-8.2-2.9-8.2-10
			c0-5.3,2.5-10.4,5-13.3c3.5-4,7.5-5.6,11.1-5.6c4.3,0,5.9,2.1,5.4,6.5c0.1,0.5,1.2,0.5,1.5,0.1c0.5-2.1,1.3-4.7,2.2-6.8
			C819.8,219.4,816.5,218.3,812.5,218.3L812.5,218.3z"/>
	</g>
	<g>
		<path class="st1" d="M825,249.1c-1.1,0-1.7-1-1.7-2.5c0-3.5,2.5-9.1,4.7-12c1.2-1.6,2.2-2.1,3.1-2.1c1.3,0,1.5,1.3,1.5,2.5
			c0,3.1-2.3,8.7-4,11.2C827.1,248.3,826.1,249.1,825,249.1L825,249.1z M818.9,244.6c-0.1,3.4,1.9,6.2,5.8,6.2
			c2.1,0,4.7-0.6,7.5-3.3c3.2-3,4.6-7.3,4.6-10.2c0.1-3.5-1.6-6.4-5.8-6.4c-2.1,0-4.5,0.6-7.2,3.2C821,236.7,819,241.2,818.9,244.6
			L818.9,244.6z"/>
	</g>
	<g>
		<path d="M852.5,224c1.3-3.8,1.8-5.3,2.5-7.2c0-0.1-0.2-0.4-0.3-0.4c-2.3,0.2-6.3,1-7.5,1.5c-0.3,0.3-0.3,0.7-0.1,0.9l1.1,0.6
			c0.8,0.5,1,0.9,0.2,3.4l-7.8,22.8c-0.7,1.9-0.8,2.7-0.8,3.5c0,0.8,0.6,1.7,2.5,1.7c4.8,0,7.5-3.8,8.9-6.3c0.1-0.6-0.3-0.8-0.8-0.8
			c-1.6,1.9-4.1,4.5-5.1,4.5c-0.7,0-0.6-0.7-0.2-1.9L852.5,224L852.5,224z"/>
	</g>
	<g>
		<path d="M865.3,224c1.3-3.8,1.8-5.3,2.5-7.2c0-0.1-0.2-0.4-0.3-0.4c-2.3,0.2-6.3,1-7.5,1.5c-0.3,0.3-0.3,0.7-0.1,0.9l1.1,0.6
			c0.8,0.5,1,0.9,0.2,3.4l-7.8,22.8c-0.7,1.9-0.8,2.7-0.8,3.5c0,0.8,0.6,1.7,2.5,1.7c4.8,0,7.5-3.8,8.9-6.3c0.1-0.6-0.3-0.8-0.8-0.8
			c-1.6,1.9-4.1,4.5-5.1,4.5c-0.7,0-0.6-0.7-0.2-1.9L865.3,224L865.3,224z"/>
	</g>
	<g>
		<path class="st1" d="M869.9,250.8c3.1,0,6.4-1.4,9-5c0.1-0.5-0.3-0.9-0.8-0.9c-2.2,2-3.9,3-5.6,3c-1.3,0-2.1-0.9-2.1-2.7
			c0-1.3,0.2-2.4,0.4-3.1c5.2-1.4,11.6-3.7,11.6-8c0-1.6-1.5-3.3-3.8-3.3c-1.8,0-4,0.6-6.6,2.5c-4.5,3.4-6.7,8.7-6.7,12.2
			C865.4,248.2,866.7,250.8,869.9,250.8L869.9,250.8z M877.4,232.6c0.6,0,0.9,0.6,0.9,1.2c0,0.8-0.6,2.4-1.7,3.5
			c-1.5,1.6-3,2.4-5.4,3.2c0.5-1.7,1.7-4.2,3.4-6C875.8,233.2,876.8,232.6,877.4,232.6L877.4,232.6z"/>
	</g>
	<g>
		<path class="st1" d="M887.3,262.8c5.8,0,11.8-2.1,11.8-5.8c0-1.8-0.9-3.3-3.2-4.7c-1.5-0.9-3.3-1.9-4.5-2.5
			c-1.6-0.8-2.5-1.8-2.5-2.3c0-0.6,0.5-1.1,0.8-1.4c1.3-0.2,2.5-0.5,3.4-0.9c3.7-1.8,6.5-5.2,6.5-9.3c0-0.4-0.2-1.2-0.3-1.6
			c0-0.1,0.2-0.3,0.4-0.3c0.4,0,1,0.1,1.5,0.3c0.5,0.1,0.9,0.2,1.4,0.2s1.3-0.3,1.3-1.7c0-1.1-0.6-1.6-1.3-1.6
			c-0.5,0-1.4,0.3-2.2,0.5c-0.8,0.2-1.6,0.3-2.1,0.3c-0.4,0-0.9-0.3-1.6-0.6c-0.7-0.3-1.3-0.4-2-0.4c-2.7,0-5,0.9-7,2.5
			c-2.5,2.2-3.9,5.3-3.9,7.6c0,3.3,2.3,4.5,3.8,4.9c-0.8,0.8-2.6,2.7-2.6,3.7c0,1,0.6,1.6,1.7,2.4c-2.6,0.8-8.1,2.8-8.1,6.4
			C879.1,261.7,883.9,262.8,887.3,262.8L887.3,262.8z M889.7,261c-3.1,0-6-1.3-6-3.5c0-1.1,0.8-2.1,2-3.1c1-0.8,2.6-1.4,3.2-1.4
			c0.5,0,2.2,0.9,4.1,2.1c1.5,1,2.3,2.1,2.3,3.1C895.2,260,892.1,261,889.7,261L889.7,261z M896,234.2c0,1.4-1.4,5-3.2,7.4
			c-1.3,1.7-2.4,2.7-3.3,2.7s-1.4-0.7-1.4-1.6c0-2.2,2-6.2,3.6-8.1c1.2-1.5,2.2-2,2.9-2C895.3,232.6,896,233.3,896,234.2L896,234.2z
			"/>
	</g>
	<g>
		<path class="st1" d="M907.5,250.8c3.1,0,6.4-1.4,9-5c0.1-0.5-0.3-0.9-0.8-0.9c-2.2,2-3.9,3-5.6,3c-1.3,0-2.1-0.9-2.1-2.7
			c0-1.3,0.2-2.4,0.4-3.1c5.2-1.4,11.6-3.7,11.6-8c0-1.6-1.5-3.3-3.8-3.3c-1.8,0-4,0.6-6.6,2.5c-4.5,3.4-6.7,8.7-6.7,12.2
			C903.1,248.2,904.4,250.8,907.5,250.8L907.5,250.8z M915.1,232.6c0.6,0,0.9,0.6,0.9,1.2c0,0.8-0.6,2.4-1.7,3.5
			c-1.5,1.6-3,2.4-5.4,3.2c0.5-1.7,1.7-4.2,3.4-6C913.5,233.2,914.5,232.6,915.1,232.6L915.1,232.6z"/>
	</g>
</g>
</svg>
